<mxfile host="app.diagrams.net" agent="Mozilla/5.0 (Windows NT 10.0; Win64; x64) AppleWebKit/537.36 (KHTML, like Gecko) Chrome/133.0.0.0 Safari/537.36 Edg/133.0.0.0" version="26.1.0">
  <diagram id="C5RBs43oDa-KdzZeNtuy" name="Page-1">
    <mxGraphModel dx="1805" dy="596" grid="1" gridSize="10" guides="1" tooltips="1" connect="1" arrows="1" fold="1" page="1" pageScale="1" pageWidth="827" pageHeight="1169" math="0" shadow="0">
      <root>
        <mxCell id="WIyWlLk6GJQsqaUBKTNV-0" />
        <mxCell id="WIyWlLk6GJQsqaUBKTNV-1" parent="WIyWlLk6GJQsqaUBKTNV-0" />
        <mxCell id="zkfFHV4jXpPFQw0GAbJ--17" value="FlightBoard" style="swimlane;fontStyle=0;align=center;verticalAlign=top;childLayout=stackLayout;horizontal=1;startSize=26;horizontalStack=0;resizeParent=1;resizeLast=0;collapsible=1;marginBottom=0;rounded=0;shadow=0;strokeWidth=1;" parent="WIyWlLk6GJQsqaUBKTNV-1" vertex="1">
          <mxGeometry x="-200" y="180" width="472" height="230" as="geometry">
            <mxRectangle x="-2" y="180" width="160" height="26" as="alternateBounds" />
          </mxGeometry>
        </mxCell>
        <mxCell id="zkfFHV4jXpPFQw0GAbJ--19" value="-numberOfTiles: int {readOnly}&#xa;-playerTilesMap: Map&lt;Player, Integer&gt;&#xa;-playerOrderList: Player[4]" style="text;align=left;verticalAlign=top;spacingLeft=4;spacingRight=4;overflow=hidden;rotatable=0;points=[[0,0.5],[1,0.5]];portConstraint=eastwest;rounded=0;shadow=0;html=0;" parent="zkfFHV4jXpPFQw0GAbJ--17" vertex="1">
          <mxGeometry y="26" width="472" height="54" as="geometry" />
        </mxCell>
        <mxCell id="zkfFHV4jXpPFQw0GAbJ--23" value="" style="line;html=1;strokeWidth=1;align=left;verticalAlign=middle;spacingTop=-1;spacingLeft=3;spacingRight=3;rotatable=0;labelPosition=right;points=[];portConstraint=eastwest;" parent="zkfFHV4jXpPFQw0GAbJ--17" vertex="1">
          <mxGeometry y="80" width="472" height="20" as="geometry" />
        </mxCell>
        <mxCell id="pxoufbot8qxQPVuUizvH-9" value="+createFlightBoard(numberOfTiles: int): FlightBoard&lt;div&gt;+setPlayerTile(player: Player, tile: int)&lt;/div&gt;&lt;div&gt;+incrementPlayerTile(player: Player, tiles: int)&lt;/div&gt;&lt;div&gt;+getPlayerTile(player: Player): int&lt;br&gt;&lt;div&gt;&lt;div&gt;+getPlayerInOrder(order: int): Player&lt;/div&gt;&lt;div&gt;+updatePlayerOrder()&lt;/div&gt;&lt;div&gt;+checkLappedPlayer(): Player&lt;/div&gt;&lt;/div&gt;&lt;div&gt;+eliminatePlayer(player: Player)&lt;/div&gt;&lt;div&gt;&lt;br&gt;&lt;/div&gt;&lt;/div&gt;" style="text;html=1;align=left;verticalAlign=middle;whiteSpace=wrap;rounded=0;" vertex="1" parent="zkfFHV4jXpPFQw0GAbJ--17">
          <mxGeometry y="100" width="472" height="130" as="geometry" />
        </mxCell>
        <mxCell id="pxoufbot8qxQPVuUizvH-7" value="numberOfTiles final int to remember the constant number of tiles on the board&lt;div&gt;&lt;br&gt;&lt;/div&gt;&lt;div&gt;Order: position in order&lt;/div&gt;&lt;div&gt;Tile: position on board&lt;/div&gt;&lt;div&gt;&lt;br&gt;&lt;/div&gt;&lt;div&gt;Player order is updated based solely on player tiles&lt;/div&gt;" style="text;html=1;align=center;verticalAlign=middle;whiteSpace=wrap;rounded=0;" vertex="1" parent="WIyWlLk6GJQsqaUBKTNV-1">
          <mxGeometry x="340" y="140" width="240" height="190" as="geometry" />
        </mxCell>
      </root>
    </mxGraphModel>
  </diagram>
</mxfile>
